<svg width="266" height="81" viewBox="0 0 266 81" fill="none" xmlns="http://www.w3.org/2000/svg">
<g clip-path="url(#clip0_434_23)">
<path d="M91.82 20.31C91.8671 19.2705 91.6431 18.2367 91.17 17.31C90.7597 16.5816 90.1969 15.9505 89.52 15.46C88.8662 14.9991 88.1344 14.6603 87.36 14.46C85.9512 14.06 84.4588 14.06 83.05 14.46C82.2872 14.6599 81.5614 14.9806 80.9 15.41C80.2034 15.8784 79.636 16.5146 79.25 17.26C78.7869 18.1903 78.5635 19.2215 78.6 20.26V50.26L91.82 33.83V20.31Z" fill="#050C13"/>
<path d="M78.6 62.59C79.1017 63.4275 79.7445 64.1718 80.5 64.79C81.1555 65.3199 81.8785 65.7604 82.65 66.1C83.4272 66.4332 84.2644 66.6034 85.11 66.6C85.9504 66.5903 86.7772 66.3857 87.5251 66.0022C88.273 65.6187 88.9216 65.0668 89.42 64.39L121.42 24.62C122.299 23.62 122.795 22.341 122.82 21.01C122.832 19.9418 122.518 18.8954 121.92 18.01C121.368 17.1655 120.694 16.4073 119.92 15.76C119.266 15.2379 118.538 14.8165 117.76 14.51C117.012 14.2138 116.215 14.0612 115.41 14.06C114.57 14.0662 113.743 14.2683 112.995 14.6502C112.247 15.0321 111.598 15.5833 111.1 16.26L79.2 56.08C78.3249 57.1182 77.8278 58.4226 77.79 59.78C77.7868 60.7747 78.0678 61.7496 78.6 62.59Z" fill="#050C13"/>
<path d="M121 54.68L110.26 45L101.94 55.32L112.06 64.54C112.712 65.208 113.523 65.7003 114.416 65.9713C115.309 66.2423 116.257 66.2831 117.17 66.09C117.953 65.9284 118.699 65.6233 119.37 65.19C119.978 64.8039 120.527 64.3324 121 63.79C121.464 63.2352 121.866 62.6316 122.2 61.99C122.598 61.262 122.853 60.4642 122.95 59.64C123.051 58.7951 122.965 57.9384 122.7 57.13C122.352 56.1812 121.767 55.3376 121 54.68Z" fill="#050C13"/>
<path d="M163.41 44.46C162.711 43.2844 161.904 42.1763 161 41.15C160.2 40.28 159.7 39.75 159.5 39.55L138.61 16.1C137.991 15.386 137.219 14.8218 136.35 14.45C135.605 14.1523 134.796 14.049 134 14.15C133.214 14.2441 132.451 14.4813 131.75 14.85C131.046 15.2031 130.376 15.6216 129.75 16.1C129.188 16.6084 128.684 17.1786 128.25 17.8C127.782 18.4622 127.459 19.2151 127.3 20.01C127.115 20.8163 127.115 21.6538 127.3 22.46C127.557 23.4121 128.037 24.2895 128.7 25.02L147.44 46.02C148.467 47.1359 149.342 48.3835 150.04 49.73C150.368 50.4878 150.538 51.3044 150.54 52.13C150.46 52.9727 150.168 53.7813 149.69 54.48C149.381 54.9781 148.942 55.3827 148.421 55.6505C147.899 55.9183 147.315 56.0391 146.73 56C145.848 56.0319 144.976 55.8061 144.22 55.35C143.534 54.8973 142.927 54.3368 142.42 53.69C141.877 53.0191 141.373 52.318 140.91 51.59C140.439 50.8448 139.903 50.1421 139.31 49.49C138.686 48.8055 137.94 48.2427 137.11 47.83C136.104 47.3696 135.006 47.1472 133.9 47.18C131.16 47.18 129.207 48.0167 128.04 49.69C126.881 51.3293 126.269 53.2925 126.29 55.3C126.277 56.7797 126.62 58.2408 127.29 59.56C127.936 60.8329 128.799 61.9835 129.84 62.96C130.834 63.8986 131.968 64.6778 133.2 65.27C134.261 65.7992 135.425 66.0893 136.61 66.12L156.34 66.22C157.431 66.1917 158.512 66.0064 159.55 65.67C160.812 65.2747 161.984 64.636 163 63.79C164.144 62.8336 165.065 61.6392 165.7 60.29C166.482 58.5967 166.859 56.7443 166.8 54.88C166.834 52.9108 166.495 50.9529 165.8 49.11C165.173 47.4948 164.403 45.9387 163.5 44.46" fill="#050C13"/>
<path d="M163.16 26.72C163.89 26.3787 164.525 25.8637 165.01 25.22C165.462 24.6194 165.801 23.9417 166.01 23.22C166.208 22.5035 166.309 21.7635 166.31 21.02C166.298 20.2608 166.198 19.5056 166.01 18.77C165.824 17.9597 165.485 17.1925 165.01 16.51C164.516 15.8228 163.886 15.2442 163.16 14.81C162.245 14.3018 161.206 14.0593 160.16 14.11H143.62L155.34 27.33H160.15C161.183 27.3622 162.209 27.1569 163.15 26.73" fill="#050C13"/>
<path d="M202.69 45.76C203.435 45.4107 204.076 44.873 204.55 44.2C204.98 43.5752 205.301 42.8821 205.5 42.15C205.9 40.7751 205.9 39.3149 205.5 37.94C205.302 37.1857 204.944 36.4828 204.451 35.8789C203.957 35.275 203.34 34.7843 202.64 34.44C201.722 33.9976 200.708 33.7881 199.69 33.83H189.37V46.36H199.69C200.723 46.3948 201.75 46.1894 202.69 45.76Z" fill="#050C13"/>
<path d="M183.21 65.7C183.853 65.2179 184.383 64.5999 184.76 63.89C185.19 63.0214 185.397 62.0588 185.36 61.09V14.2H172.14V61.09C172.098 62.0592 172.305 63.0229 172.74 63.89C173.123 64.611 173.671 65.2312 174.34 65.7C175.005 66.1669 175.751 66.506 176.54 66.7C177.295 66.8936 178.071 66.9943 178.85 67C179.61 66.9961 180.366 66.8953 181.1 66.7C181.861 66.5052 182.577 66.1657 183.21 65.7Z" fill="#050C13"/>
<path d="M204.5 16.2C203.995 15.5718 203.361 15.0601 202.64 14.7C201.719 14.266 200.707 14.0602 199.69 14.1H189.37V26.62H199.69C200.723 26.6548 201.75 26.4494 202.69 26.02C203.433 25.6711 204.073 25.1374 204.55 24.47C204.978 23.8405 205.299 23.1444 205.5 22.41C205.9 21.0386 205.9 19.5814 205.5 18.21C205.305 17.4827 204.965 16.8024 204.5 16.21" fill="#050C13"/>
<path d="M189.37 66.2H199.69C200.723 66.2348 201.75 66.0294 202.69 65.6C203.438 65.2364 204.079 64.6852 204.55 64C204.973 63.3894 205.294 62.7139 205.5 62C205.9 60.6251 205.9 59.1649 205.5 57.79C205.3 57.0352 204.942 56.3317 204.449 55.7264C203.955 55.1212 203.339 54.6281 202.64 54.28C201.719 53.8461 200.707 53.6403 199.69 53.68H189.37V66.2Z" fill="#050C13"/>
<path d="M251.37 16.3C250.867 15.6742 250.236 15.1629 249.52 14.8C248.583 14.3608 247.554 14.1549 246.52 14.2H214.7C213.666 14.1549 212.637 14.3608 211.7 14.8C210.984 15.1629 210.353 15.6742 209.85 16.3C209.385 16.8924 209.045 17.5727 208.85 18.3C208.45 19.6714 208.45 21.1286 208.85 22.5C209.062 23.2393 209.4 23.9363 209.85 24.56C210.326 25.2249 210.962 25.7582 211.7 26.11C212.641 26.537 213.667 26.7422 214.7 26.71H246.56C247.593 26.7433 248.619 26.538 249.56 26.11C250.3 25.7608 250.937 25.227 251.41 24.56C251.856 23.9339 252.194 23.2376 252.41 22.5C252.81 21.1286 252.81 19.6714 252.41 18.3C252.215 17.5727 251.875 16.8924 251.41 16.3" fill="#050C13"/>
<path d="M235.09 65.7C235.733 65.2179 236.263 64.5999 236.64 63.89C237.07 63.0214 237.277 62.0588 237.24 61.09V30.83H224V61.09C223.963 62.0588 224.17 63.0214 224.6 63.89C224.983 64.611 225.531 65.2312 226.2 65.7C226.868 66.1689 227.617 66.5081 228.41 66.7C229.161 66.8942 229.934 66.9949 230.71 67C231.473 66.9962 232.232 66.8954 232.97 66.7C233.727 66.5031 234.44 66.1637 235.07 65.7" fill="#050C13"/>
<path d="M66.19 58.43V22.18C66.2006 19.9194 65.3135 17.747 63.7234 16.1401C62.1334 14.5332 59.9705 13.6232 57.71 13.61H21.71C19.4511 13.6232 17.2898 14.5319 15.7 16.1366C14.1103 17.7413 13.222 19.9111 13.23 22.17V58.45C13.2247 60.7088 14.1155 62.8776 15.7071 64.4804C17.2987 66.0833 19.4611 66.9894 21.72 67H31.94V44.74H19.22L39.72 19.54L60.32 44.74H47.43V67H57.71C59.9705 66.9868 62.1334 66.0767 63.7234 64.4698C65.3135 62.8629 66.2006 60.6906 66.19 58.43Z" fill="#050C13"/>
<path d="M265.49 14.19V66.48C265.49 70.2434 263.995 73.8527 261.334 76.5138C258.673 79.175 255.063 80.67 251.3 80.67H14.19C10.4266 80.67 6.8173 79.175 4.15615 76.5138C1.49501 73.8527 0 70.2434 0 66.48L0 14.19C0 10.4266 1.49501 6.8173 4.15615 4.15615C6.8173 1.49501 10.4266 0 14.19 0H251.3C255.063 0 258.673 1.49501 261.334 4.15615C263.995 6.8173 265.49 10.4266 265.49 14.19ZM14.19 74.78H251.3C253.501 74.78 255.612 73.9055 257.169 72.349C258.726 70.7924 259.6 68.6813 259.6 66.48V14.19C259.601 13.0992 259.388 12.0188 258.971 11.0107C258.555 10.0025 257.943 9.08633 257.173 8.31455C256.402 7.54276 255.486 6.93049 254.479 6.51276C253.471 6.09502 252.391 5.88 251.3 5.88H14.19C11.9861 5.88 9.87237 6.75552 8.31394 8.31394C6.75552 9.87237 5.88 11.9861 5.88 14.19V66.48C5.88265 68.6822 6.75934 70.7933 8.31748 72.3496C9.87562 73.9059 11.9878 74.78 14.19 74.78Z" fill="#050C13"/>
</g>
<defs>
<clipPath id="clip0_434_23">
<rect width="265.49" height="80.67" fill="white"/>
</clipPath>
</defs>
</svg>
