<svg width="280" height="118" viewBox="0 0 280 118" fill="none" xmlns="http://www.w3.org/2000/svg">
<path fill-rule="evenodd" clip-rule="evenodd" d="M241.252 0H125.841V25.1266H241.073C242.444 25.1012 243.806 25.3475 245.08 25.8511C246.355 26.3547 247.517 27.1056 248.498 28.0602C249.479 29.0148 250.26 30.1542 250.795 31.4121C251.331 32.67 251.611 34.0215 251.618 35.388C251.616 38.1779 250.506 40.8536 248.53 42.8294C246.553 44.8052 243.872 45.9202 241.073 45.9303H214.081V71.0378H228.4L251.605 117.013H279.974L255.289 68.324C262.832 65.0822 269.023 59.3499 272.822 52.0918C276.621 44.8336 277.796 36.4926 276.148 28.4726C274.5 20.4526 270.131 13.243 263.775 8.05727C257.42 2.87153 249.466 0.0261607 241.252 0Z" fill="#231F20"/>
<path d="M188.871 45.9367H39.7154V71.0378H188.871V45.9367Z" fill="#231F20"/>
<path d="M214.35 91.8989H63.0423V117H214.35V91.8989Z" fill="#231F20"/>
<path fill-rule="evenodd" clip-rule="evenodd" d="M100.599 0H0.00640674V16.7426H0V117H25.1849V25.1011H100.599V0Z" fill="#231F20"/>
</svg>
